HIERARCHY
ROOT Hips
{
 OFFSET 0.000000 0.000000 0.000000
 CHANNELS 6 Xposition Yposition Zposition Yrotation Xrotation Zrotation
 JOINT Chest
 {
  OFFSET 0.000000 14.374500 -0.011500
  CHANNELS 3 Yrotation Xrotation Zrotation
  JOINT Chest2
  {
   OFFSET 0.000000 9.203400 0.023400
   CHANNELS 3 Yrotation Xrotation Zrotation
   JOINT Chest3
   {
    OFFSET 0.000000 9.162700 0.000000
    CHANNELS 3 Yrotation Xrotation Zrotation
    JOINT Chest4
    {
     OFFSET 0.000000 9.153300 0.000000
     CHANNELS 3 Yrotation Xrotation Zrotation
     JOINT Neck
     {
      OFFSET 0.000000 13.353600 0.000000
      CHANNELS 3 Yrotation Xrotation Zrotation
      JOINT Head
      {
       OFFSET 0.000000 8.573800 0.049400
       CHANNELS 3 Yrotation Xrotation Zrotation
       End Site
       {
        OFFSET 0.000000 16.219200 0.026100
       }
      }
     }
     JOINT RightCollar
     {
      OFFSET -2.497100 8.876100 0.000000
      CHANNELS 3 Yrotation Xrotation Zrotation
      JOINT RightShoulder
      {
       OFFSET -12.289200 0.000000 0.000000
       CHANNELS 3 Yrotation Xrotation Zrotation
       JOINT RightElbow
       {
        OFFSET 0.000000 -28.194900 0.000000
        CHANNELS 3 Yrotation Xrotation Zrotation
        JOINT RightWrist
        {
         OFFSET 0.000000 -23.009700 0.007900
         CHANNELS 3 Yrotation Xrotation Zrotation
         End Site
         {
          OFFSET 0.000000 -17.151500 0.000000
         }
        }
       }
      }
     }
     JOINT LeftCollar
     {
      OFFSET 2.497100 8.876100 0.000000
      CHANNELS 3 Yrotation Xrotation Zrotation
      JOINT LeftShoulder
      {
       OFFSET 12.289200 0.000000 0.000000
       CHANNELS 3 Yrotation Xrotation Zrotation
       JOINT LeftElbow
       {
        OFFSET 0.000000 -28.194900 0.000000
        CHANNELS 3 Yrotation Xrotation Zrotation
        JOINT LeftWrist
        {
         OFFSET 0.000000 -23.009700 0.007900
         CHANNELS 3 Yrotation Xrotation Zrotation
         End Site
         {
          OFFSET 0.000000 -17.151500 0.000000
         }
        }
       }
      }
     }
    }
   }
  }
 }
 JOINT RightHip
 {
  OFFSET -11.777600 0.056700 0.005700
  CHANNELS 3 Yrotation Xrotation Zrotation
  JOINT RightKnee
  {
   OFFSET 0.000000 -39.966000 -0.004200
   CHANNELS 3 Yrotation Xrotation Zrotation
   JOINT RightAnkle
   {
    OFFSET 0.000000 -41.981900 0.027400
    CHANNELS 3 Yrotation Xrotation Zrotation
    JOINT RightToe
    {
     OFFSET 0.000000 -9.910600 16.950100
     CHANNELS 3 Yrotation Xrotation Zrotation
     End Site
     {
      OFFSET 0.000000 -1.461000 6.191600
     }
    }
   }
  }
 }
 JOINT LeftHip
 {
  OFFSET 11.777600 0.056700 0.005700
  CHANNELS 3 Yrotation Xrotation Zrotation
  JOINT LeftKnee
  {
   OFFSET 0.000000 -39.966000 -0.004200
   CHANNELS 3 Yrotation Xrotation Zrotation
   JOINT LeftAnkle
   {
    OFFSET 0.000000 -41.981900 0.027400
    CHANNELS 3 Yrotation Xrotation Zrotation
    JOINT LeftToe
    {
     OFFSET 0.000000 -9.910600 16.950100
     CHANNELS 3 Yrotation Xrotation Zrotation
     End Site
     {
      OFFSET 0.000000 -1.461000 6.191600
     }
    }
   }
  }
 }
}
MOTION
Frames: 9
Frame Time: 0.008333
0.000000 91.618700 0.000000 0.000000 -5.767877 0.000000 0.000000 11.653817 0.000000 0.000000 -5.885947 0.000000 0.000000 -0.000000 0.000000 0.000000 -0.000000 0.000000 0.000000 12.528835 0.000000 0.000000 0.711642 0.000000 0.000000 -0.000000 0.000000 0.000000 0.000000 -90.000000 0.000000 -2.309062 0.000000 0.000000 2.309062 0.000000 0.000000 -0.000000 0.000000 0.000000 -0.000000 90.000000 0.000000 -2.309062 0.000000 0.000000 2.309062 0.000000 0.000000 8.520406 0.000000 0.000000 1.905762 0.000000 -0.000000 -4.658285 0.000000 0.000000 -0.000000 0.000000 0.000000 8.520406 0.000000 0.000000 1.905762 0.000000 -0.000000 -4.658285 0.000000 0.000000 -0.000000 0.000000
-2.913581 152.697898 86.643198 173.876798 -49.674188 -2.677593 4.882574 29.603568 3.363660 0.727043 5.683191 0.486699 1.153112 8.878264 0.797223 3.492821 23.547893 2.629041 1.251209 13.503880 0.821731 1.082363 -11.489453 0.596009 6.339360 -2.766036 -0.087699 8.979676 -28.645427 -11.867449 29.288727 -53.593168 -20.419339 29.385507 25.731397 -1.961637 -15.208696 -7.648708 -1.599096 -5.244556 -27.476817 5.719830 -20.759462 -53.161748 5.789565 -22.432973 8.973020 14.241371 7.798276 -28.036236 0.876228 -75.589701 87.144696 -77.783241 4.289553 -25.883363 7.942053 0.064359 -0.233320 0.038982 -1.868922 -28.123155 -2.037820 145.964544 71.811736 157.509667 -4.026561 8.428519 -7.622307 0.213309 -9.007980 -1.290566
-4.175178 145.653693 88.512779 174.066861 -49.616721 -2.912982 4.804170 29.545091 3.462187 0.721686 5.688308 0.488412 1.154631 8.879135 0.796008 3.492429 23.546787 2.626626 1.262792 13.480854 0.812615 1.129051 -11.563800 0.553887 6.337664 -2.800504 -0.106616 8.969805 -28.618763 -11.843597 29.292013 -53.580039 -20.409384 29.374092 25.724620 -1.972905 -15.214941 -7.662920 -1.590071 -5.231576 -27.466524 5.710078 -20.791662 -53.152003 5.805683 -22.416121 8.963201 14.252914 7.628769 -28.133748 0.967295 -76.452711 87.156939 -78.644227 4.310936 -25.975217 7.943909 0.038069 -0.158846 0.022256 -2.045679 -28.152525 -1.931679 145.911868 71.844664 157.455167 -3.980230 8.472082 -7.589165 0.066438 0.057539 0.038831
-5.215786 139.852517 90.052484 174.214531 -49.570127 -3.093723 4.741187 29.499128 3.536216 0.721108 5.689143 0.488682 1.150514 8.883014 0.796778 3.492433 23.546420 2.624175 1.272867 13.462553 0.804916 1.135309 -11.573176 0.547879 6.339760 -2.812510 -0.112250 8.965949 -28.615551 -11.832895 29.302921 -53.555363 -20.408974 29.358923 25.713146 -1.986554 -15.219705 -7.674782 -1.581447 -5.220612 -27.450941 5.701912 -20.805738 -53.157995 5.817423 -22.428663 8.953359 14.250974 7.499223 -28.214990 1.036556 -77.263030 87.161751 -79.456490 4.327011 -26.052114 7.952383 0.017267 -0.095269 0.010094 -2.183659 -28.177098 -1.850460 145.873701 71.869717 157.413696 -3.949621 8.507535 -7.566034 0.033161 0.042167 0.019389
-5.968647 135.663559 91.163883 174.312173 -49.542382 -3.212154 4.696280 29.473095 3.584561 0.722386 5.689281 0.487761 1.148835 8.883905 0.796104 3.488674 23.552625 2.627172 1.279741 13.450018 0.795752 1.146544 -11.590770 0.536822 6.344050 -2.828254 -0.120439 8.963324 -28.616348 -11.822039 29.302030 -53.535838 -20.405108 29.352849 25.704407 -1.994160 -15.223671 -7.692062 -1.577918 -5.207920 -27.437735 5.694071 -20.812006 -53.162456 5.824677 -22.430330 8.950746 14.251032 7.406811 -28.268739 1.083462 -77.869459 87.164839 -80.069582 4.337947 -26.108492 7.952242 0.007326 -0.048563 0.004283 -2.280550 -28.193174 -1.803256 145.843337 71.886575 157.375379 -3.924790 8.553355 -7.550947 0.007466 0.024916 0.004365
-6.443391 133.019548 91.864904 174.363472 -49.535149 -3.281803 4.658963 29.466381 3.609910 0.726088 5.692066 0.486167 1.158341 8.883380 0.795178 3.471121 23.564069 2.636600 1.301846 13.419063 0.771010 1.196229 -11.662453 0.491814 6.365056 -2.852964 -0.144595 8.955403 -28.611919 -11.805082 29.294009 -53.516734 -20.395432 29.345523 25.695987 -2.005486 -15.212796 -7.718189 -1.585060 -5.206389 -27.423530 5.691236 -20.822464 -53.162509 5.836734 -22.422569 8.947474 14.257043 7.356249 -28.294333 1.117159 -78.313047 87.160644 -80.519058 4.354813 -26.146165 7.954152 0.002543 -0.018077 0.001487 -2.333414 -28.192307 -1.769102 145.828214 71.906870 157.358395 -3.916063 8.604743 -7.546673 0.001105 0.009309 0.000646
-6.705558 131.566281 92.249838 174.375816 -49.538759 -3.303476 4.648212 29.471198 3.625123 0.728651 5.691954 0.481704 1.141923 8.892432 0.804624 3.470531 23.564243 2.629830 1.324288 13.382043 0.749999 1.199586 -11.657595 0.484803 6.380015 -2.882569 -0.162865 8.949723 -28.596537 -11.790866 29.280609 -53.499851 -20.383209 29.342131 25.688404 -2.016980 -15.201867 -7.735390 -1.594360 -5.219218 -27.406494 5.702607 -20.818300 -53.166379 5.834602 -22.419844 8.947936 14.272462 7.341105 -28.299317 1.129092 -78.471909 87.163363 -80.681773 4.367440 -26.159250 7.954538 0.003920 -0.009724 0.002292 -2.350190 -28.186651 -1.756635 145.818259 71.913691 157.346699 -3.911309 8.628336 -7.546881 0.000791 0.005365 0.000462
-6.832644 130.873690 92.433631 174.382059 -49.539761 -3.304879 4.634728 29.475131 3.623691 0.724488 5.693453 0.483256 1.147980 8.890816 0.798107 3.468543 23.565130 2.629808 1.331273 13.369368 0.744256 1.211577 -11.672471 0.471780 6.384620 -2.891516 -0.168693 8.948827 -28.595862 -11.782380 29.269817 -53.483870 -20.375393 29.327240 25.686999 -2.028696 -15.202663 -7.743618 -1.593664 -5.215058 -27.400031 5.700771 -20.833257 -53.161143 5.838211 -22.425088 8.943108 14.279784 7.340006 -28.302402 1.123216 -78.634416 87.170593 -80.845374 4.344618 -26.174957 7.959732 -0.000513 -0.006953 -0.000300 -2.361121 -28.188807 -1.760532 145.801508 71.918492 157.322580 -3.914149 8.651920 -7.546729 0.001404 0.000360 0.000821
-6.884163 130.590197 92.509416 174.386070 -49.541014 -3.307769 4.628976 29.477801 3.624762 0.719472 5.696402 0.487752 1.145426 8.893775 0.799321 3.461347 23.568812 2.631829 1.350384 13.335429 0.722649 1.236375 -11.706857 0.445075 6.379563 -2.927539 -0.191937 8.964292 -28.572192 -11.768988 29.266316 -53.474291 -20.374764 29.303749 25.693110 -2.034266 -15.197905 -7.769343 -1.602357 -5.213504 -27.380394 5.706146 -20.843361 -53.163669 5.842862 -22.418929 8.940883 14.288025 7.340697 -28.303874 1.121416 -78.710666 87.176770 -80.923531 4.338319 -26.183840 7.964607 -0.001032 -0.005130 -0.000603 -2.364657 -28.187970 -1.761038 145.787397 71.921330 157.307220 -3.917241 8.661225 -7.545662 0.001577 -0.001274 0.000922
